<?xml version="1.0" encoding="utf-8"?>
<!-- Svg Vector Icons : http://www.onlinewebfonts.com/icon -->
<!DOCTYPE svg PUBLIC "-//W3C//DTD SVG 1.1//EN" "http://www.w3.org/Graphics/SVG/1.1/DTD/svg11.dtd">
<svg version="1.1" xmlns="http://www.w3.org/2000/svg" xmlns:xlink="http://www.w3.org/1999/xlink" x="0px" y="0px" viewBox="0 0 256 256" enable-background="new 0 0 256 256" xml:space="preserve">
<metadata> Svg Vector Icons : http://www.onlinewebfonts.com/icon </metadata>
<g><g><g><path fill="#000000" d="M119,9.1c-0.6,0.4-21.2,20.7-45.6,45.1L28.8,98.7V86c0-11.5-0.1-12.8-1.2-14.5c-1.6-2.7-3.8-3.9-7-3.9c-2,0-3.4,0.4-4.7,1.4c-3.5,2.5-3.6,2.9-3.6,28.2c0,24.8,0,24.6,3.2,27.6l1.6,1.5H42h24.8l1.6-1.5c4.6-4.3,4.1-10.4-1-13.5c-1.8-1.1-3-1.2-14.3-1.2H40.8l44.5-44.5c30.7-30.7,44.6-45,44.9-46.1c0.6-2.6-0.1-6.3-1.6-7.9C125.8,8.7,121.7,7.7,119,9.1z"/><path fill="#000000" d="M177.4,68.8c-0.8,0.5-35.1,34.6-76.2,75.7l-74.8,74.7v-12.6c0-11.6-0.1-12.7-1.2-14.5c-2.3-3.8-7.6-4.9-11.2-2.5c-4.1,2.7-4.1,2.8-4.1,28.2c0,25.1,0.1,25.6,3.6,28.1l2,1.4l23.5,0.2c21.5,0.1,23.7,0.1,25.5-0.9c4.2-2.2,5.8-6.9,3.8-11c-1.9-4.1-3-4.4-17.1-4.4c-6.9,0-12.5-0.2-12.5-0.5c0-0.2,33.6-34,74.7-75c41-41.1,75-75.4,75.5-76.3c1.5-2.8,0.7-6.5-1.8-9c-1.8-1.8-2.6-2.1-5.2-2.3C179.7,67.8,178.5,68,177.4,68.8z"/><path fill="#000000" d="M234.1,124.9c-0.6,0.4-21.1,20.5-45.4,44.8l-44.2,44.1v-12c0-13.5-0.4-15-4.1-17.4c-3.6-2.4-9-1.2-11.3,2.4c-1.1,1.7-1.1,3.4-1.1,26v24.1l1.6,1.9c2.9,3.4,3.3,3.5,27.7,3.5c25.1,0,26-0.1,28.3-3.9c2.5-4.1,1.4-8.9-2.6-11.3c-1.7-1.1-3.1-1.2-14.5-1.2H156l44.8-44.8c39.3-39.3,44.8-45,45.1-46.9c0.5-2.9-0.5-5.9-3-8.1c-1.6-1.4-2.5-1.8-4.8-1.8C236.5,124.2,234.8,124.5,234.1,124.9z"/></g></g></g>
</svg>